# xmcd
#
# Track frame offsets:
#	150
#	33431
#	69950
#	115882
#	149964
#	175262
#	207932
#	234766
#	266884
#
# Disc length: 4428 seconds
#
# Revision: 0
# Processed by: cddbd v1.4PL0 Copyright (c) Steve Scherf et al.
# Submitted via: EasyCDDAExtractor 5.0.4.1
#
DISCID=84114a09
DTITLE=Various Artist - Magic Mushrooms
DYEAR=1900
DGENRE=
TTITLE0=Surge: Chant (Exclusive )
TTITLE1=Metal Spark: Geiger
TTITLE2=X-Dream: Oscillator
TTITLE3=Beast: Trouble
TTITLE4=Digitalis: Dr. Sembei
TTITLE5=Joujouka: Re-Psycle Frequency
TTITLE6=Genuine: Lightware
TTITLE7=Marzipan and Mustard: Fever (Exclusive )
TTITLE8=Sanjiva: Left Behind
EXTD=
EXTT0=
EXTT1=
EXTT2=
EXTT3=
EXTT4=
EXTT5=
EXTT6=
EXTT7=
EXTT8=
PLAYORDER=
